# xmcd
#
# Track frame offsets:
#	151
#	17282
#	30923
#	40605
#
# Disc length: 870 seconds
#
# Revision: 3
# Processed by: cddbd v1.4PL0 Copyright (c) Steve Scherf et al.
# Submitted via: MusicWizard 6.0.1
#
DISCID=18036404
DTITLE=Norbert Und Die Feiglinge - Ich Werd' 30  #4: Rente
DYEAR=1996
DGENRE=Comedy
TTITLE0=Ich Werd' Dreiﬂig
TTITLE1=Meine Haare
TTITLE2=Lass Die Alten Ran!
TTITLE3=Wir Sind Alt
EXTD=
EXTT0=
EXTT1=
EXTT2=
EXTT3=
PLAYORDER=
